# xmcd
# 
# Track frame offsets:
#     150
#     10911
#     25830
#     45400
#     62043
#     82235
#     102356
#     122232
#     137120
#     154965
#     171162
#     192556
#     206018
#     215113
# 
# Disc length: 2953
# 
# Revision: 1
# Processed by: cddbd v1.5.2PL0 Copyright (c) Steve Scherf et al.
# Submitted via: fre:ac v1.0.17
# 
DISCID=d10b870e
DTITLE=Sons and Brothers - Room With A View
DYEAR=2002
DGENRE=Bluegrass
TTITLE0=That's The Reason
TTITLE1=Slewfoot
TTITLE2=Farther Along
TTITLE3=Red Clay Halo
TTITLE4=Orphan Train
TTITLE5=All Aboard
TTITLE6=Did Christ O'er Sinners Weep
TTITLE7=Flop Eared Mule
TTITLE8=A Mother's Last Worls To Her Daughter
TTITLE9=The Baptism Of Jesse Taylor
TTITLE10=Pilgrim
TTITLE11=That's The Reason
TTITLE12=Down Yonder
TTITLE13=I Will SIng
EXTD=
EXTT0=
EXTT1=
EXTT2=
EXTT3=
EXTT4=
EXTT5=
EXTT6=
EXTT7=
EXTT8=
EXTT9=
EXTT10=
EXTT11=
EXTT12=
EXTT13=
PLAYORDER=
